<svg width="93" height="13" viewBox="0 0 93 13" fill="none" xmlns="http://www.w3.org/2000/svg">
<g style="mix-blend-mode:luminosity" opacity="0.34" clip-path="url(#clip0_887_19901)">
<path d="M12.863 6.46354C12.863 2.93689 15.8124 0.0848171 19.5002 0.0848171C23.2138 0.0848171 26.164 2.93848 26.164 6.46354C26.164 9.96402 23.2138 12.8684 19.5002 12.8684C15.8124 12.8684 12.863 9.96085 12.863 6.46354ZM22.977 6.46354C22.977 4.70061 21.423 3.14457 19.5002 3.14457C17.604 3.14457 16.0499 4.70061 16.0499 6.46354C16.0499 8.25262 17.604 9.80866 19.5002 9.80866C21.4262 9.80866 22.977 8.25262 22.977 6.46354ZM79.794 6.56738C79.794 2.70384 82.981 0.0848171 85.8789 0.0848171C87.854 0.0848171 88.9869 0.680915 89.7502 1.82238L90.0538 0.31628H93.0161V12.6346H90.0538L89.6713 11.3663C88.8025 12.3001 87.722 12.8724 85.8789 12.8724C83.0341 12.8684 79.794 10.4048 79.794 6.56738ZM89.9081 6.54122C89.9008 4.67627 88.3403 3.14576 86.4457 3.14576C84.5463 3.14576 82.9834 4.68444 82.9834 6.5543V6.56738C82.9834 8.27878 84.5374 9.80866 86.4344 9.80866C88.3548 9.80866 89.9081 8.27878 89.9081 6.54122ZM76.1537 1.7439V0.317073H72.9144V12.6346H76.1537V5.99744C76.1537 4.00067 77.1554 2.96384 78.8914 2.96384C79.0065 2.96384 79.116 2.97177 79.2231 2.98207L79.8238 0.00871951C78.1353 0.017439 76.9114 0.587378 76.1537 1.7439ZM43.6021 1.7447V0.317866L40.3628 0.325L40.3902 12.6409L43.6295 12.6338L43.6118 5.99744C43.6069 4.00146 44.6062 2.96226 46.3438 2.95829C46.4546 2.95861 46.5654 2.96471 46.6755 2.97652L47.273 0C45.5821 0.0134756 44.3566 0.585793 43.6021 1.7447ZM27.2864 7.86341V0.317866H30.5249V7.475C30.5249 9.0564 31.4203 9.99018 32.9743 9.99018C34.7128 9.99018 35.712 8.95256 35.712 6.95579V0.317866H38.9521V12.6346H35.7144V11.2077C34.9511 12.3746 33.7127 12.9453 32.0009 12.9453C29.1038 12.9461 27.2864 10.8716 27.2864 7.86341ZM58.8291 6.4778C58.8364 3.02884 61.3438 0.0776829 65.3206 0.0848171C69.0084 0.0919512 71.61 3.0003 71.6011 6.42628C71.6019 6.76499 71.5746 7.10323 71.5206 7.43774L61.9863 7.4203C62.3519 8.89866 63.5878 9.96402 65.4583 9.96799C66.5904 9.96799 67.803 9.55738 68.5422 8.62518L70.7517 10.3691C69.6155 11.9489 67.6114 12.8787 65.4793 12.8748C61.715 12.8621 58.8227 10.0821 58.8291 6.4778ZM68.3401 5.19841C68.1581 3.9539 66.8432 2.99159 65.2892 2.98921C63.7875 2.98921 62.5749 3.86591 62.0982 5.18732L68.3401 5.19841ZM47.2923 9.94976L50.1717 8.46585C50.6476 9.48128 51.5993 10.0798 52.948 10.0798C54.1904 10.0798 54.6663 9.68976 54.6663 9.1428C54.6663 7.1611 47.8455 8.36201 47.8455 3.83183C47.8455 1.33329 50.0662 0.00634146 52.8151 0.00634146C54.9038 0.00634146 56.7542 0.917134 57.759 2.60872L54.9054 4.095C54.4827 3.26189 53.6896 2.79341 52.6847 2.79341C51.7072 2.79341 51.2305 3.13189 51.2305 3.70421C51.2305 5.63043 58.0513 4.40732 58.0513 9.01518C58.0513 11.4099 56.0689 12.8668 52.8699 12.8668C50.1467 12.8645 48.2433 11.9798 47.2923 9.94976ZM0 6.46354C0 2.91152 2.94943 0.0586585 6.63722 0.0586585C8.8875 0.043122 10.9999 1.14757 12.247 2.99159L9.48197 4.57061C9.16188 4.12068 8.736 3.75363 8.24066 3.50077C7.74531 3.2479 7.1952 3.11672 6.63722 3.11841C4.74099 3.11841 3.18696 4.67445 3.18696 6.46354C3.18696 8.25262 4.74099 9.80866 6.63722 9.80866C7.22149 9.81208 7.79692 9.66818 8.3087 9.39067C8.82047 9.11316 9.25156 8.71127 9.56088 8.22329L12.2985 9.83085C11.066 11.7297 8.92462 12.8772 6.63561 12.8652C2.94943 12.8684 0 9.96085 0 6.46354Z" fill="#2A5BD7"/>
</g>
<defs>
<clipPath id="clip0_887_19901">
<rect width="93" height="13" fill="white"/>
</clipPath>
</defs>
</svg>
