<svg width="135" height="36" viewBox="0 0 135 36" fill="none" xmlns="http://www.w3.org/2000/svg">
<path d="M19.8727 18.0975L8.4638 13.6717C8.3144 13.6138 8.31407 13.4025 8.4633 13.3441L19.8717 8.87772C19.9541 8.84545 20.0457 8.84545 20.1281 8.87772L31.5365 13.3441C31.6857 13.4025 31.6854 13.6138 31.536 13.6717L20.1271 18.0975C20.0453 18.1292 19.9545 18.1292 19.8727 18.0975Z" fill="#FFD600"/>
<path d="M19.7747 8.6269C19.9312 8.57397 20.1018 8.57775 20.2564 8.63823L31.6648 13.1046L31.6854 13.1132C32.1055 13.2966 32.1046 13.897 31.684 14.0792L31.6633 14.0876L20.2544 18.5133C20.101 18.5728 19.9319 18.5766 19.7765 18.5245L19.7456 18.5133L8.33671 14.0876C7.88852 13.9137 7.88752 13.2799 8.33516 13.1046L19.7436 8.63823L19.7747 8.6269ZM9.01172 13.595L20 17.8576L30.9882 13.595L20 9.29323L9.01172 13.595Z" fill="#FFD600"/>
<path d="M29.6289 23.0946L22.1504 25.8085L22.1631 27.41L20 26.6004L17.8369 27.41L17.8486 25.8094L10.3711 23.0946L10.3652 15.6123L17.9326 18.4853C18.6731 18.7664 19.365 19.1554 19.9873 19.6367C20.6162 19.1481 21.317 18.7542 22.0674 18.4707L29.6347 15.6123L29.6289 23.0946ZM20 21.6386C19.2399 21.6386 18.624 22.2554 18.624 23.0155C18.6242 23.7754 19.24 24.3914 20 24.3915C20.76 24.3915 21.3767 23.7755 21.3769 23.0155C21.3769 22.2554 20.7601 21.6386 20 21.6386Z" fill="#EBC500"/>
<path d="M120.47 22.0811H120.59C120.951 22.2414 121.357 22.3717 121.807 22.4719C122.268 22.5721 122.724 22.6222 123.175 22.6222C123.316 22.6222 123.501 22.6172 123.731 22.6071C123.972 22.5871 124.212 22.542 124.453 22.4719C124.704 22.4017 124.914 22.2815 125.084 22.1111C125.255 21.9307 125.34 21.6802 125.34 21.3596C125.34 20.9988 125.195 20.7433 124.904 20.593C124.613 20.4427 124.212 20.3274 123.701 20.2473L122.98 20.127C122.128 19.9867 121.497 19.7462 121.086 19.4055C120.675 19.0548 120.47 18.5638 120.47 17.9325C120.47 17.4915 120.585 17.0807 120.815 16.6999C121.056 16.3091 121.437 15.9985 121.958 15.768C122.489 15.5275 123.195 15.4072 124.077 15.4072C124.468 15.4072 124.844 15.4423 125.205 15.5124C125.575 15.5726 125.881 15.6477 126.121 15.7379V16.9705H126.001C125.671 16.8502 125.355 16.76 125.054 16.6999C124.754 16.6398 124.408 16.6097 124.017 16.6097C123.326 16.6097 122.78 16.7099 122.379 16.9103C121.988 17.1007 121.792 17.4264 121.792 17.8874C121.792 18.2381 121.933 18.4886 122.213 18.6389C122.504 18.7892 122.905 18.9045 123.416 18.9846L124.137 19.1049C124.598 19.175 125.019 19.3003 125.4 19.4807C125.781 19.661 126.086 19.9065 126.317 20.2172C126.547 20.5178 126.663 20.8986 126.663 21.3596C126.663 22.1712 126.372 22.7875 125.791 23.2084C125.21 23.6192 124.318 23.8247 123.115 23.8247C122.604 23.8247 122.123 23.7846 121.672 23.7044C121.231 23.6243 120.83 23.524 120.47 23.4038V22.0811Z" fill="#262729"/>
<path d="M116.01 23.8242C115.249 23.8242 114.582 23.7341 114.011 23.5537C113.45 23.3633 112.979 23.0877 112.598 22.727C112.227 22.3662 111.952 21.9253 111.772 21.4042C111.591 20.8731 111.501 20.2669 111.501 19.5855C111.501 18.7337 111.656 17.9922 111.967 17.3609C112.288 16.7195 112.729 16.2235 113.29 15.8728C113.861 15.522 114.527 15.3467 115.289 15.3467C116.171 15.3467 116.882 15.5271 117.423 15.8878C117.964 16.2485 118.35 16.7546 118.581 17.4059C118.821 18.0573 118.926 18.8139 118.896 19.6756L118.881 20.0965H112.463V18.9542H117.453V18.8339C117.453 18.0823 117.273 17.5162 116.912 17.1354C116.551 16.7446 116.01 16.5492 115.289 16.5492C114.868 16.5492 114.477 16.6394 114.116 16.8197C113.756 17.0001 113.465 17.3057 113.245 17.7366C113.024 18.1675 112.914 18.7537 112.914 19.4953V19.5855C112.914 20.3571 113.049 20.9633 113.32 21.4042C113.59 21.8451 113.961 22.1608 114.432 22.3512C114.913 22.5316 115.459 22.6218 116.07 22.6218C116.582 22.6218 117.017 22.5716 117.378 22.4714C117.739 22.3712 118.024 22.261 118.235 22.1408H118.355V23.3733C118.115 23.4936 117.799 23.5988 117.408 23.689C117.017 23.7792 116.551 23.8242 116.01 23.8242Z" fill="#262729"/>
<path d="M103.985 22.0811H104.106C104.466 22.2414 104.872 22.3717 105.323 22.4719C105.784 22.5721 106.24 22.6222 106.691 22.6222C106.831 22.6222 107.017 22.6172 107.247 22.6071C107.488 22.5871 107.728 22.542 107.969 22.4719C108.219 22.4017 108.43 22.2815 108.6 22.1111C108.77 21.9307 108.855 21.6802 108.855 21.3596C108.855 20.9988 108.71 20.7433 108.42 20.593C108.129 20.4427 107.728 20.3274 107.217 20.2473L106.496 20.127C105.644 19.9867 105.012 19.7462 104.602 19.4055C104.191 19.0548 103.985 18.5638 103.985 17.9325C103.985 17.4915 104.101 17.0807 104.331 16.6999C104.572 16.3091 104.952 15.9985 105.473 15.768C106.005 15.5275 106.711 15.4072 107.593 15.4072C107.984 15.4072 108.359 15.4423 108.72 15.5124C109.091 15.5726 109.397 15.6477 109.637 15.7379V16.9705H109.517C109.186 16.8502 108.87 16.76 108.57 16.6999C108.269 16.6398 107.924 16.6097 107.533 16.6097C106.841 16.6097 106.295 16.7099 105.894 16.9103C105.503 17.1007 105.308 17.4264 105.308 17.8874C105.308 18.2381 105.448 18.4886 105.729 18.6389C106.02 18.7892 106.42 18.9045 106.931 18.9846L107.653 19.1049C108.114 19.175 108.535 19.3003 108.916 19.4807C109.296 19.661 109.602 19.9065 109.832 20.2172C110.063 20.5178 110.178 20.8986 110.178 21.3596C110.178 22.1712 109.888 22.7875 109.306 23.2084C108.725 23.6192 107.833 23.8247 106.631 23.8247C106.12 23.8247 105.639 23.7846 105.188 23.7044C104.747 23.6243 104.346 23.524 103.985 23.4038V22.0811Z" fill="#262729"/>
<path d="M98.8781 23.7048V18.5341C98.8781 18.3337 98.8731 18.0732 98.863 17.7525C98.863 17.4318 98.853 17.1162 98.833 16.8055C98.8229 16.4949 98.7979 16.2494 98.7578 16.069L98.7879 15.9488C99.0484 15.8486 99.3691 15.7634 99.7499 15.6932C100.141 15.6231 100.526 15.568 100.907 15.5279C101.298 15.4878 101.624 15.4678 101.884 15.4678C102.125 15.4678 102.32 15.4728 102.471 15.4828C102.621 15.4928 102.746 15.5079 102.846 15.5279V16.7304H102.726C102.596 16.7103 102.44 16.6953 102.26 16.6853C102.08 16.6753 101.914 16.6703 101.764 16.6703C101.453 16.6703 101.128 16.6953 100.787 16.7454C100.446 16.7955 100.151 16.8456 99.9002 16.8957L100.171 16.52C100.231 16.8506 100.261 17.2615 100.261 17.7525V23.7048H98.8781Z" fill="#262729"/>
<path d="M92.9281 23.8847C92.407 23.8847 91.916 23.8295 91.455 23.7193C91.0041 23.6191 90.6082 23.4387 90.2675 23.1782C89.9369 22.9076 89.6763 22.5419 89.4859 22.0809C89.2955 21.62 89.2003 21.0388 89.2003 20.3373V18.1127C89.2003 17.9123 89.1953 17.6517 89.1853 17.3311C89.1853 17.0104 89.1753 16.6948 89.1552 16.3841C89.1452 16.0735 89.1202 15.828 89.0801 15.6476L89.1101 15.5273H90.5832V20.2171C90.5832 20.8784 90.6784 21.3895 90.8688 21.7502C91.0692 22.101 91.3548 22.3465 91.7256 22.4868C92.1064 22.617 92.5623 22.6822 93.0934 22.6822C93.4141 22.6822 93.7397 22.6571 94.0704 22.607C94.4111 22.5469 94.7067 22.4818 94.9573 22.4116L94.7017 22.7724C94.6616 22.6321 94.6366 22.4567 94.6266 22.2463C94.6166 22.0358 94.6115 21.8204 94.6115 21.5999V18.1127C94.6115 17.9123 94.6065 17.6517 94.5965 17.3311C94.5965 17.0104 94.5865 16.6948 94.5665 16.3841C94.5564 16.0735 94.5314 15.828 94.4913 15.6476L94.5214 15.5273H95.9944V20.7582C95.9944 20.9586 95.9944 21.2191 95.9944 21.5398C96.0044 21.8605 96.0145 22.1761 96.0245 22.4868C96.0445 22.7974 96.0746 23.0429 96.1147 23.2233L96.0846 23.3435C95.8241 23.4437 95.4934 23.5339 95.0925 23.6141C94.7017 23.6943 94.3059 23.7594 93.9051 23.8095C93.5143 23.8596 93.1886 23.8847 92.9281 23.8847Z" fill="#262729"/>
<path d="M79.6479 19.5855C79.6479 18.6936 79.8033 17.932 80.1139 17.3007C80.4346 16.6694 80.8755 16.1884 81.4367 15.8577C82.0078 15.517 82.6642 15.3467 83.4057 15.3467C84.1473 15.3467 84.7986 15.517 85.3598 15.8577C85.931 16.1884 86.3719 16.6694 86.6825 17.3007C87.0032 17.932 87.1635 18.6936 87.1635 19.5855C87.1635 20.4773 87.0032 21.2389 86.6825 21.8702C86.3719 22.5015 85.931 22.9875 85.3598 23.3282C84.7986 23.6589 84.1473 23.8242 83.4057 23.8242C82.6442 23.8242 81.9828 23.6589 81.4216 23.3282C80.8605 22.9875 80.4246 22.5015 80.1139 21.8702C79.8033 21.2389 79.6479 20.4773 79.6479 19.5855ZM81.0609 19.5855C81.0609 20.5875 81.2613 21.3441 81.6621 21.8552C82.073 22.3662 82.6542 22.6218 83.4057 22.6218C84.1573 22.6218 84.7335 22.3662 85.1343 21.8552C85.5452 21.3441 85.7506 20.5875 85.7506 19.5855C85.7506 18.5734 85.5452 17.8168 85.1343 17.3158C84.7335 16.8047 84.1573 16.5492 83.4057 16.5492C82.6542 16.5492 82.073 16.8047 81.6621 17.3158C81.2613 17.8168 81.0609 18.5734 81.0609 19.5855Z" fill="#262729"/>
<path d="M72.0146 19.5855C72.0146 18.6936 72.19 17.932 72.5407 17.3007C72.9015 16.6694 73.4075 16.1884 74.0589 15.8577C74.7203 15.517 75.5019 15.3467 76.4037 15.3467C77.1453 15.3467 77.7666 15.4569 78.2676 15.6774V16.9099H78.1474C77.9369 16.7997 77.6814 16.7145 77.3808 16.6544C77.0902 16.5842 76.7645 16.5492 76.4037 16.5492C75.5019 16.5492 74.7804 16.8047 74.2393 17.3158C73.6981 17.8168 73.4276 18.5734 73.4276 19.5855C73.4276 20.5875 73.6981 21.3441 74.2393 21.8552C74.7804 22.3662 75.5019 22.6218 76.4037 22.6218C76.7645 22.6218 77.0902 22.5867 77.3808 22.5165C77.6814 22.4464 77.9369 22.3612 78.1474 22.261H78.2676V23.4936C77.7666 23.714 77.1453 23.8242 76.4037 23.8242C75.4818 23.8242 74.6902 23.6589 74.0288 23.3282C73.3775 22.9875 72.8764 22.5015 72.5257 21.8702C72.185 21.2389 72.0146 20.4773 72.0146 19.5855Z" fill="#262729"/>
<path d="M67.4749 23.8697C66.7434 23.8697 66.067 23.7895 65.4457 23.6292C64.8345 23.4689 64.3084 23.2233 63.8675 22.8927C63.4366 22.552 63.1009 22.106 62.8604 21.5549C62.6299 21.0037 62.5146 20.3424 62.5146 19.5708C62.5146 18.6689 62.685 17.8973 63.0257 17.256C63.3664 16.6046 63.8524 16.1086 64.4837 15.7679C65.115 15.4272 65.8616 15.2568 66.7234 15.2568C67.6553 15.2568 68.4169 15.4522 69.0081 15.8431C69.5993 16.2339 70.0252 16.77 70.2858 17.4514C70.5563 18.1328 70.6665 18.9044 70.6164 19.7662L70.6014 20.3073H64.138V18.7441H68.0762V18.6689C68.0762 18.1679 67.9609 17.7821 67.7305 17.5115C67.51 17.2309 67.1593 17.0906 66.6783 17.0906C66.3676 17.0906 66.0971 17.1608 65.8666 17.3011C65.6461 17.4414 65.4708 17.6769 65.3405 18.0075C65.2203 18.3282 65.1601 18.7691 65.1601 19.3303V19.8113C65.1601 20.3424 65.2654 20.7582 65.4758 21.0589C65.6962 21.3495 65.9969 21.5599 66.3777 21.6902C66.7584 21.8104 67.2044 21.8705 67.7154 21.8705C68.1764 21.8705 68.5973 21.8254 68.978 21.7353C69.3689 21.6451 69.6695 21.5399 69.8799 21.4196H70.0302V23.4789C69.7296 23.5991 69.3689 23.6943 68.948 23.7645C68.5371 23.8346 68.0461 23.8697 67.4749 23.8697Z" fill="#262729"/>
<path d="M58.0365 23.8697C57.3049 23.8697 56.6285 23.7895 56.0072 23.6292C55.396 23.4689 54.8699 23.2233 54.429 22.8927C53.9981 22.552 53.6624 22.106 53.4219 21.5549C53.1914 21.0037 53.0762 20.3424 53.0762 19.5708C53.0762 18.6689 53.2465 17.8973 53.5872 17.256C53.9279 16.6046 54.4139 16.1086 55.0453 15.7679C55.6766 15.4272 56.4231 15.2568 57.2849 15.2568C58.2168 15.2568 58.9784 15.4522 59.5696 15.8431C60.1609 16.2339 60.5867 16.77 60.8473 17.4514C61.1178 18.1328 61.2281 18.9044 61.178 19.7662L61.1629 20.3073H54.6995V18.7441H58.6377V18.6689C58.6377 18.1679 58.5225 17.7821 58.292 17.5115C58.0715 17.2309 57.7208 17.0906 57.2398 17.0906C56.9292 17.0906 56.6586 17.1608 56.4281 17.3011C56.2077 17.4414 56.0323 17.6769 55.902 18.0075C55.7818 18.3282 55.7217 18.7691 55.7217 19.3303V19.8113C55.7217 20.3424 55.8269 20.7582 56.0373 21.0589C56.2578 21.3495 56.5584 21.5599 56.9392 21.6902C57.32 21.8104 57.7659 21.8705 58.277 21.8705C58.7379 21.8705 59.1588 21.8254 59.5396 21.7353C59.9304 21.6451 60.231 21.5399 60.4414 21.4196H60.5918V23.4789C60.2911 23.5991 59.9304 23.6943 59.5095 23.7645C59.0987 23.8346 58.6076 23.8697 58.0365 23.8697Z" fill="#262729"/>
<path d="M47.1864 23.7042V18.4132C47.1864 18.2128 47.1814 17.9573 47.1714 17.6466C47.1714 17.326 47.1564 17.0153 47.1263 16.7147C47.1063 16.404 47.0762 16.1585 47.0361 15.9782L47.0812 15.8579C47.3718 15.7577 47.6975 15.6675 48.0583 15.5873C48.429 15.5072 48.8349 15.442 49.2758 15.3919C49.7267 15.3318 50.2177 15.3018 50.7488 15.3018C50.8991 15.3018 51.0996 15.3068 51.3501 15.3168C51.6106 15.3268 51.8862 15.3569 52.1768 15.407V17.4813H52.0114C51.8411 17.4412 51.6557 17.4111 51.4553 17.3911C51.2649 17.361 51.0745 17.346 50.8841 17.346C50.5534 17.346 50.2428 17.3761 49.9522 17.4362C49.6616 17.4863 49.4161 17.5564 49.2157 17.6466L49.5764 17.0604C49.7468 17.3009 49.8319 17.812 49.8319 18.5936V23.7042H47.1864Z" fill="#262729"/>
<path d="M41.3528 23.7042V15.6175C41.3528 14.7958 41.5081 14.1294 41.8188 13.6183C42.1394 13.0973 42.5854 12.7165 43.1565 12.476C43.7377 12.2355 44.4142 12.1152 45.1857 12.1152C45.4663 12.1152 45.7169 12.1303 45.9373 12.1603C46.1578 12.1904 46.3431 12.2355 46.4935 12.2956V14.2497H46.3281C46.2179 14.1996 46.0876 14.1595 45.9373 14.1294C45.797 14.0893 45.6317 14.0693 45.4413 14.0693C44.9603 14.0693 44.5995 14.1895 44.359 14.43C44.1185 14.6705 43.9983 15.0764 43.9983 15.6476V23.7042H41.3528ZM40 17.5264V15.4822H45.9523V17.5264H40Z" fill="#262729"/>
</svg>
