<svg width="42" height="43" viewBox="0 0 42 43" fill="none" xmlns="http://www.w3.org/2000/svg">
<path d="M35 29.418C38.2917 29.418 41 32.1569 41 35.585C40.9998 39.0129 38.2916 41.751 35 41.751C31.7084 41.7509 29.0002 39.0129 29 35.585C29 32.1569 31.7083 29.418 35 29.418Z" fill="#FFD600" stroke="#19212C" stroke-width="2"/>
<path d="M21 29.667C24.2917 29.667 27 32.4059 27 35.834C26.9998 39.2619 24.2916 42 21 42C17.7084 42 15.0002 39.2619 15 35.834C15 32.4059 17.7083 29.667 21 29.667Z" fill="#FFD600" stroke="#19212C" stroke-width="2"/>
<path d="M7 29.667C10.2917 29.667 13 32.4059 13 35.834C12.9998 39.2619 10.2916 42 7 42C3.70843 42 1.00016 39.2619 1 35.834C1 32.4059 3.70833 29.667 7 29.667Z" fill="#FFD600" stroke="#19212C" stroke-width="2"/>
<path d="M35 1C38.2917 1 41 3.73891 41 7.16699C40.9998 10.5949 38.2916 13.333 35 13.333C31.7084 13.333 29.0002 10.5949 29 7.16699C29 3.73893 31.7083 1.00003 35 1Z" fill="#FFD600" stroke="#19212C" stroke-width="2"/>
<path d="M20.624 14.708C24.0584 14.7081 26.8818 17.5655 26.8818 21.1396C26.8817 24.7136 24.0583 27.5702 20.624 27.5703C17.1897 27.5703 14.3654 24.7137 14.3652 21.1396C14.3652 17.5654 17.1896 14.708 20.624 14.708Z" fill="#FFD600" stroke="#19212C" stroke-width="2"/>
<path d="M10.6475 3.88281C14.0818 3.88295 16.9053 6.74031 16.9053 10.3145C16.9051 13.8884 14.0817 16.745 10.6475 16.7451C7.21312 16.7451 4.38884 13.8885 4.38867 10.3145C4.38867 6.74022 7.21302 3.88281 10.6475 3.88281Z" fill="#FFD600" stroke="#19212C" stroke-width="2"/>
<path d="M35.001 15.333C38.3084 15.333 40.9999 18.0323 41 21.375C41 24.7178 38.3084 27.417 35.001 27.417C31.6936 27.4169 29.002 24.7178 29.002 21.375C29.0021 18.0323 31.6936 15.3331 35.001 15.333Z" fill="#FFD600" stroke="#19212C" stroke-width="2"/>
</svg>
