<svg width="44" height="45" viewBox="0 0 44 45" fill="none" xmlns="http://www.w3.org/2000/svg">
<path d="M44.0008 36.9115C44.0008 40.9616 40.7175 44.2449 36.6674 44.2449C32.6173 44.2449 29.334 40.9616 29.334 36.9115C29.334 32.8614 32.6173 29.5781 36.6674 29.5781C40.7175 29.5781 44.0008 32.8614 44.0008 36.9115Z" fill="#FFD600"/>
<path d="M42.5 36.9114C42.4999 33.6516 39.8642 31.053 36.6675 31.053C33.4707 31.053 30.8348 33.6516 30.8347 36.9114C30.8347 40.1712 33.4707 42.77 36.6675 42.77V44.2449L36.4782 44.2425C32.5155 44.1421 29.334 40.8982 29.334 36.9114C29.334 32.8613 32.6174 29.5781 36.6675 29.5781L36.8568 29.5805C40.8193 29.681 44.0007 32.9246 44.0007 36.9114C44.0007 40.9615 40.7176 44.2448 36.6675 44.2449V42.77C39.8642 42.77 42.5 40.1712 42.5 36.9114Z" fill="#050F27"/>
<path d="M29.3328 37.1664C29.3328 41.2165 26.0495 44.4997 21.9994 44.4997C17.9493 44.4997 14.666 41.2165 14.666 37.1664C14.666 33.1163 17.9493 29.833 21.9994 29.833C26.0495 29.833 29.3328 33.1163 29.3328 37.1664Z" fill="#FFD600"/>
<path d="M27.832 37.1663C27.8319 33.9065 25.1962 31.3079 21.9995 31.3079C18.8028 31.3079 16.1668 33.9065 16.1668 37.1663C16.1668 40.4261 18.8027 43.0249 21.9995 43.0249V44.4998L21.8102 44.4974C17.8475 44.397 14.666 41.1531 14.666 37.1663C14.6661 33.1162 17.9494 29.833 21.9995 29.833L22.1888 29.8354C26.1514 29.9359 29.3327 33.1795 29.3327 37.1663C29.3327 41.2163 26.0496 44.4997 21.9995 44.4998V43.0249C25.1962 43.0249 27.832 40.4261 27.832 37.1663Z" fill="#050F27"/>
<path d="M14.6668 37.1664C14.6668 41.2165 11.3835 44.4997 7.3334 44.4997C3.28327 44.4997 0 41.2165 0 37.1664C0 33.1163 3.28327 29.833 7.3334 29.833C11.3835 29.833 14.6668 33.1163 14.6668 37.1664Z" fill="#FFD600"/>
<path d="M13.166 37.1663C13.1659 33.9065 10.5302 31.3079 7.33348 31.3079C4.13674 31.3079 1.5008 33.9065 1.50075 37.1663C1.50075 40.4261 4.13671 43.0249 7.33348 43.0249V44.4998L7.14418 44.4974C3.18151 44.397 0 41.1531 0 37.1663C5.80246e-05 33.1162 3.2834 29.833 7.33348 29.833L7.52279 29.8354C11.4853 29.9359 14.6667 33.1795 14.6667 37.1663C14.6667 41.2163 11.3836 44.4997 7.33348 44.4998V43.0249C10.5302 43.0249 13.166 40.4261 13.166 37.1663Z" fill="#050F27"/>
<path d="M43.9988 7.83336C43.9988 11.8835 40.7155 15.1667 36.6654 15.1667C32.6153 15.1667 29.332 11.8835 29.332 7.83336C29.332 3.78326 32.6153 0.5 36.6654 0.5C40.7155 0.5 43.9988 3.78326 43.9988 7.83336Z" fill="#FFD600"/>
<path d="M42.498 7.83326C42.498 4.57348 39.8622 1.97491 36.6655 1.97486C33.4688 1.97486 30.8328 4.57345 30.8328 7.83326C30.8328 11.0931 33.4687 13.6919 36.6655 13.6919V15.1668L36.4762 15.1644C32.5135 15.064 29.332 11.8201 29.332 7.83326C29.3321 3.7832 32.6154 0.5 36.6655 0.5L36.8548 0.5024C40.8174 0.602852 43.9987 3.84652 43.9988 7.83326C43.9988 11.8833 40.7156 15.1667 36.6655 15.1668V13.6919C39.8623 13.6918 42.498 11.0931 42.498 7.83326Z" fill="#050F27"/>
<path d="M29.2103 22.1305C29.2103 26.3302 25.8058 29.7347 21.6061 29.7347C17.4065 29.7347 14.002 26.3302 14.002 22.1305C14.002 17.9309 17.4065 14.5264 21.6061 14.5264C25.8058 14.5264 29.2103 17.9309 29.2103 22.1305Z" fill="#FFD600"/>
<path d="M27.7095 22.1304C27.7094 18.7211 24.9524 16.0012 21.6061 16.0012C18.2598 16.0013 15.5028 18.7211 15.5027 22.1304C15.5027 25.5398 18.2598 28.2598 21.6061 28.2598V29.7347L21.4099 29.7323C17.3009 29.6282 14.002 26.2645 14.002 22.1304C14.002 17.9308 17.4065 14.5264 21.6061 14.5264C25.8057 14.5264 29.2101 17.9308 29.2102 22.1304C29.2102 26.3301 25.8058 29.7347 21.6061 29.7347V28.2598C24.9524 28.2598 27.7095 25.5398 27.7095 22.1304Z" fill="#050F27"/>
<path d="M18.7591 11.0543C18.7591 15.254 15.3546 18.6585 11.155 18.6585C6.95529 18.6585 3.55078 15.254 3.55078 11.0543C3.55078 6.85469 6.95529 3.4502 11.155 3.4502C15.3546 3.4502 18.7591 6.85469 18.7591 11.0543Z" fill="#FFD600"/>
<path d="M17.2583 11.0542C17.2582 7.64488 14.5012 4.92506 11.1549 4.92506C7.80864 4.92508 5.05159 7.6449 5.05153 11.0542C5.05153 14.4636 7.8086 17.1836 11.1549 17.1836V18.6585L10.9588 18.6561C6.84977 18.552 3.55078 15.1883 3.55078 11.0542C3.55084 6.85464 6.9553 3.45022 11.1549 3.4502C15.3545 3.4502 18.759 6.85463 18.759 11.0542C18.759 15.2539 15.3546 18.6585 11.1549 18.6585V17.1836C14.5012 17.1836 17.2583 14.4636 17.2583 11.0542Z" fill="#050F27"/>
<path d="M44.0008 22.3729C44.0008 26.3527 40.7179 29.5789 36.6684 29.5789C32.6188 29.5789 29.3359 26.3527 29.3359 22.3729C29.3359 18.3932 32.6188 15.167 36.6684 15.167C40.7179 15.167 44.0008 18.3932 44.0008 22.3729Z" fill="#FFD600"/>
<path d="M42.5 22.373C42.5 19.2079 39.8891 16.6419 36.6684 16.6419C33.4477 16.6419 30.8367 19.2078 30.8367 22.373C30.8367 25.5382 33.4477 28.104 36.6684 28.104V29.5788L36.4791 29.5764C32.5799 29.4793 29.4371 26.3909 29.3384 22.5588L29.3359 22.373C29.3359 18.3933 32.6189 15.167 36.6684 15.167L36.8575 15.1694C40.8197 15.268 44.0007 18.4554 44.0007 22.373L43.9983 22.5588C43.8979 26.4526 40.6548 29.5788 36.6684 29.5788V28.104C39.8891 28.1039 42.4999 25.5381 42.5 22.373Z" fill="#050F27"/>
</svg>
