<svg width="242" height="42" viewBox="0 0 242 42" fill="none" xmlns="http://www.w3.org/2000/svg">
<path d="M26.4956 21.2171L1.03467 11.3405C0.701239 11.2111 0.700509 10.7396 1.03353 10.6092L26.4933 0.641899C26.6772 0.569888 26.8816 0.569888 27.0655 0.641899L52.5253 10.6092C52.8583 10.7396 52.8576 11.2111 52.5242 11.3405L27.0632 21.2171C26.8807 21.288 26.6782 21.288 26.4956 21.2171Z" fill="#FFD600"/>
<path d="M26.2773 0.0826892C26.6266 -0.0354343 27.0073 -0.0269988 27.3522 0.107981L52.8121 10.0754L52.8581 10.0945C53.7956 10.5039 53.7936 11.8437 52.8548 12.2502L52.8087 12.269L27.3478 22.1458C27.0054 22.2786 26.628 22.2869 26.2813 22.1707L26.2123 22.1458L0.751426 12.269C-0.24879 11.881 -0.251008 10.4665 0.747978 10.0754L26.2079 0.107981L26.2773 0.0826892ZM2.25782 11.1698L26.78 20.6825L51.3021 11.1698L26.78 1.56972L2.25782 11.1698Z" fill="#FFD600"/>
<path d="M48.2686 32.3672L31.5791 38.4268L31.6074 41.998L26.7803 40.1924L21.9531 41.998L21.9805 38.4268L5.29199 32.3672L5.2793 15.6699L24.4209 22.9375C25.2679 23.259 26.05 23.7231 26.7383 24.3037C27.4331 23.715 28.2256 23.2467 29.083 22.9229L48.2822 15.6699L48.2686 32.3672ZM26.7803 29.1201C25.084 29.1203 23.7091 30.4952 23.709 32.1914C23.709 33.8877 25.084 35.2635 26.7803 35.2637C28.4767 35.2637 29.8525 33.8878 29.8525 32.1914C29.8524 30.4951 28.4766 29.1201 26.7803 29.1201Z" fill="#EBC500"/>
<path d="M229.068 29.494H229.319C230.07 29.8277 230.914 30.0989 231.853 30.3075C232.813 30.5161 233.762 30.6204 234.7 30.6204C234.992 30.6204 235.378 30.61 235.858 30.5891C236.359 30.5474 236.859 30.4535 237.36 30.3075C237.882 30.1615 238.32 29.9112 238.674 29.5566C239.029 29.1811 239.206 28.6596 239.206 27.9921C239.206 27.2412 238.904 26.7092 238.299 26.3964C237.694 26.0835 236.859 25.8436 235.796 25.6767L234.294 25.4264C232.521 25.1344 231.206 24.6337 230.351 23.9245C229.496 23.1944 229.068 22.1723 229.068 20.8582C229.068 19.9403 229.308 19.0851 229.788 18.2924C230.289 17.4789 231.081 16.8323 232.166 16.3525C233.272 15.8519 234.742 15.6016 236.578 15.6016C237.391 15.6016 238.174 15.6746 238.925 15.8206C239.696 15.9457 240.333 16.1022 240.833 16.2899V18.8556H240.583C239.894 18.6053 239.237 18.4176 238.612 18.2924C237.986 18.1673 237.266 18.1047 236.453 18.1047C235.013 18.1047 233.876 18.3133 233.042 18.7305C232.229 19.1268 231.822 19.8048 231.822 20.7643C231.822 21.4944 232.114 22.0159 232.698 22.3288C233.303 22.6416 234.137 22.8815 235.201 23.0484L236.703 23.2987C237.662 23.4447 238.539 23.7055 239.331 24.0809C240.124 24.4564 240.76 24.9675 241.24 25.6141C241.72 26.2399 241.96 27.0326 241.96 27.9921C241.96 29.6817 241.355 30.9646 240.145 31.8407C238.935 32.6959 237.078 33.1235 234.575 33.1235C233.511 33.1235 232.51 33.0401 231.572 32.8732C230.654 32.7064 229.819 32.4978 229.068 32.2474V29.494Z" fill="#262729"/>
<path d="M219.786 33.1217C218.2 33.1217 216.813 32.934 215.624 32.5585C214.456 32.1622 213.476 31.5886 212.683 30.8376C211.911 30.0867 211.338 29.1689 210.962 28.0842C210.587 26.9786 210.399 25.7166 210.399 24.2982C210.399 22.5251 210.722 20.9815 211.369 19.6674C212.036 18.3324 212.954 17.2998 214.122 16.5697C215.311 15.8397 216.699 15.4746 218.284 15.4746C220.119 15.4746 221.601 15.8501 222.727 16.601C223.853 17.352 224.656 18.4054 225.136 19.7612C225.637 21.1171 225.856 22.692 225.793 24.4859L225.762 25.362H212.401V22.984H222.789V22.7337C222.789 21.1693 222.414 19.9907 221.663 19.198C220.912 18.3845 219.786 17.9778 218.284 17.9778C217.408 17.9778 216.594 18.1655 215.843 18.541C215.092 18.9164 214.487 19.5526 214.028 20.4496C213.57 21.3466 213.34 22.5668 213.34 24.1104V24.2982C213.34 25.9044 213.622 27.1664 214.185 28.0842C214.748 29.002 215.52 29.6591 216.5 30.0554C217.502 30.4309 218.638 30.6186 219.911 30.6186C220.975 30.6186 221.882 30.5143 222.633 30.3057C223.384 30.0971 223.978 29.8677 224.417 29.6173H224.667V32.1831C224.166 32.4334 223.509 32.6524 222.696 32.8401C221.882 33.0279 220.912 33.1217 219.786 33.1217Z" fill="#262729"/>
<path d="M194.753 29.494H195.004C195.755 29.8277 196.599 30.0989 197.538 30.3075C198.498 30.5161 199.447 30.6204 200.385 30.6204C200.678 30.6204 201.063 30.61 201.543 30.5891C202.044 30.5474 202.544 30.4535 203.045 30.3075C203.567 30.1615 204.005 29.9112 204.359 29.5566C204.714 29.1811 204.891 28.6596 204.891 27.9921C204.891 27.2412 204.589 26.7092 203.984 26.3964C203.379 26.0835 202.544 25.8436 201.481 25.6767L199.979 25.4264C198.206 25.1344 196.892 24.6337 196.036 23.9245C195.181 23.1944 194.753 22.1723 194.753 20.8582C194.753 19.9403 194.993 19.0851 195.473 18.2924C195.974 17.4789 196.766 16.8323 197.851 16.3525C198.957 15.8519 200.427 15.6016 202.263 15.6016C203.076 15.6016 203.859 15.6746 204.61 15.8206C205.381 15.9457 206.018 16.1022 206.518 16.2899V18.8556H206.268C205.58 18.6053 204.922 18.4176 204.297 18.2924C203.671 18.1673 202.951 18.1047 202.138 18.1047C200.698 18.1047 199.562 18.3133 198.727 18.7305C197.914 19.1268 197.507 19.8048 197.507 20.7643C197.507 21.4944 197.799 22.0159 198.383 22.3288C198.988 22.6416 199.822 22.8815 200.886 23.0484L202.388 23.2987C203.348 23.4447 204.224 23.7055 205.016 24.0809C205.809 24.4564 206.445 24.9675 206.925 25.6141C207.405 26.2399 207.645 27.0326 207.645 27.9921C207.645 29.6817 207.04 30.9646 205.83 31.8407C204.62 32.6959 202.763 33.1235 200.26 33.1235C199.197 33.1235 198.195 33.0401 197.257 32.8732C196.339 32.7064 195.504 32.4978 194.753 32.2474V29.494Z" fill="#262729"/>
<path d="M184.122 32.8731V22.1096C184.122 21.6924 184.111 21.15 184.091 20.4825C184.091 19.815 184.07 19.1579 184.028 18.5113C184.007 17.8647 183.955 17.3536 183.872 16.9781L183.934 16.7278C184.477 16.5192 185.144 16.3419 185.937 16.1959C186.75 16.0499 187.553 15.9352 188.346 15.8517C189.159 15.7683 189.837 15.7266 190.38 15.7266C190.88 15.7266 191.287 15.737 191.6 15.7579C191.913 15.7787 192.174 15.81 192.382 15.8517V18.3549H192.132C191.861 18.3131 191.537 18.2819 191.162 18.261C190.787 18.2401 190.442 18.2297 190.129 18.2297C189.483 18.2297 188.805 18.2819 188.096 18.3861C187.386 18.4904 186.771 18.5947 186.25 18.699L186.813 17.9168C186.938 18.6052 187.001 19.4604 187.001 20.4825V32.8731H184.122Z" fill="#262729"/>
<path d="M171.737 33.2484C170.652 33.2484 169.63 33.1337 168.67 32.9042C167.732 32.6956 166.908 32.3201 166.198 31.7778C165.51 31.2146 164.968 30.4532 164.571 29.4937C164.175 28.5341 163.977 27.3243 163.977 25.8641V21.2333C163.977 20.8161 163.966 20.2738 163.946 19.6063C163.946 18.9388 163.925 18.2817 163.883 17.635C163.862 16.9884 163.81 16.4773 163.727 16.1019L163.789 15.8516H166.856V25.6138C166.856 26.9905 167.054 28.0544 167.45 28.8053C167.867 29.5354 168.462 30.0465 169.233 30.3385C170.026 30.6097 170.975 30.7452 172.081 30.7452C172.748 30.7452 173.426 30.6931 174.115 30.5888C174.824 30.4636 175.439 30.3281 175.961 30.182L175.429 30.933C175.345 30.6409 175.293 30.2759 175.272 29.8379C175.251 29.3998 175.241 28.9513 175.241 28.4924V21.2333C175.241 20.8161 175.231 20.2738 175.21 19.6063C175.21 18.9388 175.189 18.2817 175.147 17.635C175.126 16.9884 175.074 16.4773 174.991 16.1019L175.053 15.8516H178.12V26.7402C178.12 27.1574 178.12 27.6998 178.12 28.3673C178.141 29.0348 178.161 29.6918 178.182 30.3385C178.224 30.9851 178.287 31.4962 178.37 31.8717L178.307 32.122C177.765 32.3306 177.077 32.5183 176.242 32.6852C175.429 32.8521 174.605 32.9876 173.77 33.0919C172.957 33.1962 172.279 33.2484 171.737 33.2484Z" fill="#262729"/>
<path d="M144.093 24.2982C144.093 22.4417 144.416 20.8564 145.063 19.5422C145.73 18.2281 146.648 17.2268 147.816 16.5384C149.005 15.8292 150.372 15.4746 151.915 15.4746C153.459 15.4746 154.815 15.8292 155.983 16.5384C157.172 17.2268 158.09 18.2281 158.736 19.5422C159.404 20.8564 159.737 22.4417 159.737 24.2982C159.737 26.1547 159.404 27.74 158.736 29.0541C158.09 30.3683 157.172 31.38 155.983 32.0892C154.815 32.7776 153.459 33.1217 151.915 33.1217C150.33 33.1217 148.953 32.7776 147.785 32.0892C146.617 31.38 145.709 30.3683 145.063 29.0541C144.416 27.74 144.093 26.1547 144.093 24.2982ZM147.034 24.2982C147.034 26.3841 147.451 27.959 148.286 29.0229C149.141 30.0867 150.351 30.6186 151.915 30.6186C153.48 30.6186 154.679 30.0867 155.513 29.0229C156.369 27.959 156.796 26.3841 156.796 24.2982C156.796 22.1914 156.369 20.6165 155.513 19.5735C154.679 18.5097 153.48 17.9778 151.915 17.9778C150.351 17.9778 149.141 18.5097 148.286 19.5735C147.451 20.6165 147.034 22.1914 147.034 24.2982Z" fill="#262729"/>
<path d="M128.202 24.2982C128.202 22.4417 128.567 20.8564 129.297 19.5422C130.048 18.2281 131.102 17.2268 132.457 16.5384C133.834 15.8292 135.461 15.4746 137.339 15.4746C138.882 15.4746 140.176 15.7041 141.219 16.163V18.7287H140.968C140.53 18.4992 139.998 18.3219 139.372 18.1968C138.768 18.0508 138.09 17.9778 137.339 17.9778C135.461 17.9778 133.959 18.5097 132.833 19.5735C131.707 20.6165 131.143 22.1914 131.143 24.2982C131.143 26.3841 131.707 27.959 132.833 29.0229C133.959 30.0867 135.461 30.6186 137.339 30.6186C138.09 30.6186 138.768 30.5456 139.372 30.3996C139.998 30.2536 140.53 30.0763 140.968 29.8677H141.219V32.4334C140.176 32.8923 138.882 33.1217 137.339 33.1217C135.42 33.1217 133.772 32.7776 132.395 32.0892C131.039 31.38 129.996 30.3683 129.266 29.0541C128.557 27.74 128.202 26.1547 128.202 24.2982Z" fill="#262729"/>
<path d="M118.753 33.2178C117.23 33.2178 115.822 33.0509 114.529 32.7172C113.256 32.3834 112.161 31.8724 111.243 31.184C110.346 30.4748 109.648 29.5465 109.147 28.3993C108.667 27.252 108.427 25.8753 108.427 24.2691C108.427 22.3917 108.782 20.7855 109.491 19.4505C110.2 18.0947 111.212 17.0621 112.526 16.3529C113.84 15.6437 115.394 15.2891 117.188 15.2891C119.128 15.2891 120.714 15.6958 121.944 16.5093C123.175 17.3229 124.061 18.4388 124.604 19.8573C125.167 21.2757 125.396 22.8819 125.292 24.6758L125.261 25.8022H111.806V22.5482H120.004V22.3917C120.004 21.3487 119.764 20.5457 119.285 19.9824C118.826 19.3984 118.096 19.1064 117.094 19.1064C116.448 19.1064 115.885 19.2524 115.405 19.5444C114.946 19.8364 114.581 20.3266 114.31 21.015C114.059 21.6825 113.934 22.6003 113.934 23.7684V24.7697C113.934 25.8753 114.153 26.7409 114.591 27.3667C115.05 27.9716 115.676 28.4097 116.469 28.6809C117.261 28.9312 118.19 29.0563 119.253 29.0563C120.213 29.0563 121.089 28.9625 121.882 28.7747C122.695 28.587 123.321 28.368 123.759 28.1177H124.072V32.4043C123.446 32.6546 122.695 32.8528 121.819 32.9988C120.964 33.1448 119.942 33.2178 118.753 33.2178Z" fill="#262729"/>
<path d="M99.1058 33.2178C97.583 33.2178 96.175 33.0509 94.8817 32.7172C93.6093 32.3834 92.5141 31.8724 91.5963 31.184C90.6994 30.4748 90.0006 29.5465 89.4999 28.3993C89.0202 27.252 88.7803 25.8753 88.7803 24.2691C88.7803 22.3917 89.1349 20.7855 89.8441 19.4505C90.5533 18.0947 91.565 17.0621 92.8792 16.3529C94.1933 15.6437 95.7474 15.2891 97.5413 15.2891C99.4812 15.2891 101.067 15.6958 102.297 16.5093C103.528 17.3229 104.415 18.4388 104.957 19.8573C105.52 21.2757 105.75 22.8819 105.645 24.6758L105.614 25.8022H92.1595V22.5482H100.357V22.3917C100.357 21.3487 100.117 20.5457 99.6377 19.9824C99.1788 19.3984 98.4487 19.1064 97.4474 19.1064C96.8008 19.1064 96.2376 19.2524 95.7578 19.5444C95.2989 19.8364 94.9338 20.3266 94.6627 21.015C94.4124 21.6825 94.2872 22.6003 94.2872 23.7684V24.7697C94.2872 25.8753 94.5062 26.7409 94.9443 27.3667C95.4032 27.9716 96.029 28.4097 96.8216 28.6809C97.6143 28.9312 98.5425 29.0563 99.6064 29.0563C100.566 29.0563 101.442 28.9625 102.235 28.7747C103.048 28.587 103.674 28.368 104.112 28.1177H104.425V32.4043C103.799 32.6546 103.048 32.8528 102.172 32.9988C101.317 33.1448 100.295 33.2178 99.1058 33.2178Z" fill="#262729"/>
<path d="M76.5194 32.8715V21.8577C76.5194 21.4405 76.509 20.9086 76.4881 20.262C76.4881 19.5945 76.4569 18.9478 76.3943 18.322C76.3526 17.6754 76.29 17.1643 76.2065 16.7889L76.3004 16.5386C76.9053 16.33 77.5833 16.1422 78.3342 15.9754C79.106 15.8085 79.9508 15.6729 80.8687 15.5686C81.8073 15.4434 82.8295 15.3809 83.935 15.3809C84.2479 15.3809 84.6651 15.3913 85.1866 15.4121C85.7289 15.433 86.3026 15.4956 86.9075 15.5999V19.9178H86.5633C86.2087 19.8344 85.8228 19.7718 85.4056 19.7301C85.0093 19.6675 84.6129 19.6362 84.2166 19.6362C83.5282 19.6362 82.8816 19.6988 82.2767 19.8239C81.6717 19.9282 81.1607 20.0742 80.7435 20.262L81.4944 19.0417C81.8491 19.5423 82.0264 20.6062 82.0264 22.2332V32.8715H76.5194Z" fill="#262729"/>
<path d="M64.3761 32.8721V16.0384C64.3761 14.328 64.6994 12.9408 65.3461 11.877C66.0136 10.7923 66.9418 9.99962 68.1308 9.49899C69.3407 8.99836 70.7487 8.74805 72.3549 8.74805C72.9389 8.74805 73.4604 8.77934 73.9193 8.84192C74.3783 8.90449 74.7642 8.99836 75.0771 9.12352V13.1911H74.7329C74.5034 13.0868 74.2322 13.0034 73.9193 12.9408C73.6273 12.8574 73.2831 12.8156 72.8868 12.8156C71.8855 12.8156 71.1346 13.066 70.634 13.5666C70.1333 14.0672 69.883 14.912 69.883 16.101V32.8721H64.3761ZM61.5601 20.0122V15.7568H73.9506V20.0122H61.5601Z" fill="#262729"/>
</svg>
