<svg width="44" height="44" viewBox="0 0 44 44" fill="none" xmlns="http://www.w3.org/2000/svg">
<path d="M43.9998 36.4115C43.9998 40.4616 40.7165 43.7449 36.6664 43.7449C32.6163 43.7449 29.333 40.4616 29.333 36.4115C29.333 32.3614 32.6163 29.0781 36.6664 29.0781C40.7165 29.0781 43.9998 32.3614 43.9998 36.4115Z" fill="#FFD600"/>
<path d="M42.499 36.4114C42.4989 33.1516 39.8632 30.553 36.6665 30.553C33.4697 30.553 30.8338 33.1516 30.8338 36.4114C30.8338 39.6712 33.4697 42.27 36.6665 42.27V43.7449L36.4772 43.7425C32.5145 43.6421 29.333 40.3982 29.333 36.4114C29.3331 32.3613 32.6164 29.0781 36.6665 29.0781L36.8558 29.0805C40.8184 29.181 43.9997 32.4246 43.9997 36.4114C43.9997 40.4615 40.7166 43.7448 36.6665 43.7449V42.27C39.8632 42.27 42.499 39.6712 42.499 36.4114Z" fill="#050F27"/>
<path d="M29.3338 36.6664C29.3338 40.7165 26.0505 43.9997 22.0004 43.9997C17.9503 43.9997 14.667 40.7165 14.667 36.6664C14.667 32.6163 17.9503 29.333 22.0004 29.333C26.0505 29.333 29.3338 32.6163 29.3338 36.6664Z" fill="#FFD600"/>
<path d="M27.833 36.6663C27.8329 33.4065 25.1972 30.8079 22.0005 30.8079C18.8037 30.8079 16.1678 33.4065 16.1677 36.6663C16.1677 39.9261 18.8037 42.5249 22.0005 42.5249V43.9998L21.8112 43.9974C17.8485 43.897 14.667 40.6531 14.667 36.6663C14.6671 32.6162 17.9504 29.333 22.0005 29.333L22.1898 29.3354C26.1523 29.4359 29.3337 32.6795 29.3337 36.6663C29.3337 40.7163 26.0506 43.9997 22.0005 43.9998V42.5249C25.1972 42.5249 27.833 39.9261 27.833 36.6663Z" fill="#050F27"/>
<path d="M14.6668 36.6664C14.6668 40.7165 11.3835 43.9997 7.3334 43.9997C3.28327 43.9997 0 40.7165 0 36.6664C0 32.6163 3.28327 29.333 7.3334 29.333C11.3835 29.333 14.6668 32.6163 14.6668 36.6664Z" fill="#FFD600"/>
<path d="M13.166 36.6663C13.1659 33.4065 10.5302 30.8079 7.33348 30.8079C4.13674 30.8079 1.5008 33.4065 1.50075 36.6663C1.50075 39.9261 4.13671 42.5249 7.33348 42.5249V43.9998L7.14418 43.9974C3.18151 43.897 0 40.6531 0 36.6663C5.80246e-05 32.6162 3.2834 29.333 7.33348 29.333L7.52279 29.3354C11.4853 29.4359 14.6667 32.6795 14.6667 36.6663C14.6667 40.7163 11.3836 43.9997 7.33348 43.9998V42.5249C10.5302 42.5249 13.166 39.9261 13.166 36.6663Z" fill="#050F27"/>
<path d="M43.9998 7.33336C43.9998 11.3835 40.7165 14.6667 36.6664 14.6667C32.6163 14.6667 29.333 11.3835 29.333 7.33336C29.333 3.28326 32.6163 0 36.6664 0C40.7165 0 43.9998 3.28326 43.9998 7.33336Z" fill="#FFD600"/>
<path d="M42.499 7.33326C42.4989 4.07348 39.8632 1.47491 36.6665 1.47486C33.4697 1.47486 30.8338 4.07345 30.8338 7.33326C30.8338 10.5931 33.4697 13.1919 36.6665 13.1919V14.6668L36.4772 14.6644C32.5145 14.564 29.333 11.3201 29.333 7.33326C29.3331 3.2832 32.6164 0 36.6665 0L36.8558 0.00240049C40.8184 0.102852 43.9997 3.34652 43.9997 7.33326C43.9997 11.3833 40.7166 14.6667 36.6665 14.6668V13.1919C39.8632 13.1918 42.499 10.5931 42.499 7.33326Z" fill="#050F27"/>
<path d="M29.2103 21.6305C29.2103 25.8302 25.8058 29.2347 21.6061 29.2347C17.4065 29.2347 14.002 25.8302 14.002 21.6305C14.002 17.4309 17.4065 14.0264 21.6061 14.0264C25.8058 14.0264 29.2103 17.4309 29.2103 21.6305Z" fill="#FFD600"/>
<path d="M27.7095 21.6304C27.7094 18.2211 24.9524 15.5012 21.6061 15.5012C18.2598 15.5013 15.5028 18.2211 15.5027 21.6304C15.5027 25.0398 18.2598 27.7598 21.6061 27.7598V29.2347L21.4099 29.2323C17.3009 29.1282 14.002 25.7645 14.002 21.6304C14.002 17.4308 17.4065 14.0264 21.6061 14.0264C25.8057 14.0264 29.2101 17.4308 29.2102 21.6304C29.2102 25.8301 25.8058 29.2347 21.6061 29.2347V27.7598C24.9524 27.7598 27.7095 25.0398 27.7095 21.6304Z" fill="#050F27"/>
<path d="M18.7591 10.5543C18.7591 14.754 15.3546 18.1585 11.155 18.1585C6.95529 18.1585 3.55078 14.754 3.55078 10.5543C3.55078 6.35469 6.95529 2.9502 11.155 2.9502C15.3546 2.9502 18.7591 6.35469 18.7591 10.5543Z" fill="#FFD600"/>
<path d="M17.2583 10.5542C17.2582 7.14488 14.5012 4.42506 11.1549 4.42506C7.80864 4.42508 5.05159 7.1449 5.05153 10.5542C5.05153 13.9636 7.8086 16.6836 11.1549 16.6836V18.1585L10.9588 18.1561C6.84977 18.052 3.55078 14.6883 3.55078 10.5542C3.55084 6.35464 6.9553 2.95022 11.1549 2.9502C15.3545 2.9502 18.759 6.35463 18.759 10.5542C18.759 14.7539 15.3546 18.1585 11.1549 18.1585V16.6836C14.5012 16.6836 17.2583 13.9636 17.2583 10.5542Z" fill="#050F27"/>
<path d="M43.9998 21.8729C43.9998 25.8527 40.717 29.0789 36.6674 29.0789C32.6178 29.0789 29.335 25.8527 29.335 21.8729C29.335 17.8932 32.6178 14.667 36.6674 14.667C40.717 14.667 43.9998 17.8932 43.9998 21.8729Z" fill="#FFD600"/>
<path d="M42.499 21.873C42.499 18.7079 39.8882 16.1419 36.6675 16.1419C33.4467 16.1419 30.8357 18.7078 30.8357 21.873C30.8358 25.0382 33.4468 27.604 36.6675 27.604V29.0788L36.4782 29.0764C32.5789 28.9793 29.4361 25.8909 29.3374 22.0588L29.335 21.873C29.335 17.8933 32.6179 14.667 36.6675 14.667L36.8565 14.6694C40.8187 14.768 43.9997 17.9554 43.9997 21.873L43.9973 22.0588C43.897 25.9526 40.6538 29.0788 36.6675 29.0788V27.604C39.8881 27.6039 42.4989 25.0381 42.499 21.873Z" fill="#050F27"/>
</svg>
