<svg width="44" height="44" viewBox="0 0 44 44" fill="none" xmlns="http://www.w3.org/2000/svg">
<path d="M44.0008 36.4115C44.0008 40.4616 40.7175 43.7449 36.6674 43.7449C32.6173 43.7449 29.334 40.4616 29.334 36.4115C29.334 32.3614 32.6173 29.0781 36.6674 29.0781C40.7175 29.0781 44.0008 32.3614 44.0008 36.4115Z" fill="#FFD600"/>
<path d="M42.5 36.4114C42.4999 33.1516 39.8642 30.553 36.6675 30.553C33.4707 30.553 30.8348 33.1516 30.8347 36.4114C30.8347 39.6712 33.4707 42.27 36.6675 42.27V43.7449L36.4782 43.7425C32.5155 43.6421 29.334 40.3982 29.334 36.4114C29.334 32.3613 32.6174 29.0781 36.6675 29.0781L36.8568 29.0805C40.8193 29.181 44.0007 32.4246 44.0007 36.4114C44.0007 40.4615 40.7176 43.7448 36.6675 43.7449V42.27C39.8642 42.27 42.5 39.6712 42.5 36.4114Z" fill="#050F27"/>
<path d="M29.3328 36.6664C29.3328 40.7165 26.0495 43.9997 21.9994 43.9997C17.9493 43.9997 14.666 40.7165 14.666 36.6664C14.666 32.6163 17.9493 29.333 21.9994 29.333C26.0495 29.333 29.3328 32.6163 29.3328 36.6664Z" fill="#FFD600"/>
<path d="M27.832 36.6663C27.8319 33.4065 25.1962 30.8079 21.9995 30.8079C18.8028 30.8079 16.1668 33.4065 16.1668 36.6663C16.1668 39.9261 18.8027 42.5249 21.9995 42.5249V43.9998L21.8102 43.9974C17.8475 43.897 14.666 40.6531 14.666 36.6663C14.6661 32.6162 17.9494 29.333 21.9995 29.333L22.1888 29.3354C26.1514 29.4359 29.3327 32.6795 29.3327 36.6663C29.3327 40.7163 26.0496 43.9997 21.9995 43.9998V42.5249C25.1962 42.5249 27.832 39.9261 27.832 36.6663Z" fill="#050F27"/>
<path d="M14.6668 36.6664C14.6668 40.7165 11.3835 43.9997 7.3334 43.9997C3.28327 43.9997 0 40.7165 0 36.6664C0 32.6163 3.28327 29.333 7.3334 29.333C11.3835 29.333 14.6668 32.6163 14.6668 36.6664Z" fill="#FFD600"/>
<path d="M13.166 36.6663C13.1659 33.4065 10.5302 30.8079 7.33348 30.8079C4.13674 30.8079 1.5008 33.4065 1.50075 36.6663C1.50075 39.9261 4.13671 42.5249 7.33348 42.5249V43.9998L7.14418 43.9974C3.18151 43.897 0 40.6531 0 36.6663C5.80246e-05 32.6162 3.2834 29.333 7.33348 29.333L7.52279 29.3354C11.4853 29.4359 14.6667 32.6795 14.6667 36.6663C14.6667 40.7163 11.3836 43.9997 7.33348 43.9998V42.5249C10.5302 42.5249 13.166 39.9261 13.166 36.6663Z" fill="#050F27"/>
<path d="M43.9988 7.33336C43.9988 11.3835 40.7155 14.6667 36.6654 14.6667C32.6153 14.6667 29.332 11.3835 29.332 7.33336C29.332 3.28326 32.6153 0 36.6654 0C40.7155 0 43.9988 3.28326 43.9988 7.33336Z" fill="#FFD600"/>
<path d="M42.498 7.33326C42.498 4.07348 39.8622 1.47491 36.6655 1.47486C33.4688 1.47486 30.8328 4.07345 30.8328 7.33326C30.8328 10.5931 33.4687 13.1919 36.6655 13.1919V14.6668L36.4762 14.6644C32.5135 14.564 29.332 11.3201 29.332 7.33326C29.3321 3.2832 32.6154 0 36.6655 0L36.8548 0.00240049C40.8174 0.102852 43.9987 3.34652 43.9988 7.33326C43.9988 11.3833 40.7156 14.6667 36.6655 14.6668V13.1919C39.8623 13.1918 42.498 10.5931 42.498 7.33326Z" fill="#050F27"/>
<path d="M29.2103 21.6305C29.2103 25.8302 25.8058 29.2347 21.6061 29.2347C17.4065 29.2347 14.002 25.8302 14.002 21.6305C14.002 17.4309 17.4065 14.0264 21.6061 14.0264C25.8058 14.0264 29.2103 17.4309 29.2103 21.6305Z" fill="#FFD600"/>
<path d="M27.7095 21.6304C27.7094 18.2211 24.9524 15.5012 21.6061 15.5012C18.2598 15.5013 15.5028 18.2211 15.5027 21.6304C15.5027 25.0398 18.2598 27.7598 21.6061 27.7598V29.2347L21.4099 29.2323C17.3009 29.1282 14.002 25.7645 14.002 21.6304C14.002 17.4308 17.4065 14.0264 21.6061 14.0264C25.8057 14.0264 29.2101 17.4308 29.2102 21.6304C29.2102 25.8301 25.8058 29.2347 21.6061 29.2347V27.7598C24.9524 27.7598 27.7095 25.0398 27.7095 21.6304Z" fill="#050F27"/>
<path d="M18.7591 10.5543C18.7591 14.754 15.3546 18.1585 11.155 18.1585C6.95529 18.1585 3.55078 14.754 3.55078 10.5543C3.55078 6.35469 6.95529 2.9502 11.155 2.9502C15.3546 2.9502 18.7591 6.35469 18.7591 10.5543Z" fill="#FFD600"/>
<path d="M17.2583 10.5542C17.2582 7.14488 14.5012 4.42506 11.1549 4.42506C7.80864 4.42508 5.05159 7.1449 5.05153 10.5542C5.05153 13.9636 7.8086 16.6836 11.1549 16.6836V18.1585L10.9588 18.1561C6.84977 18.052 3.55078 14.6883 3.55078 10.5542C3.55084 6.35464 6.9553 2.95022 11.1549 2.9502C15.3545 2.9502 18.759 6.35463 18.759 10.5542C18.759 14.7539 15.3546 18.1585 11.1549 18.1585V16.6836C14.5012 16.6836 17.2583 13.9636 17.2583 10.5542Z" fill="#050F27"/>
<path d="M44.0008 21.8729C44.0008 25.8527 40.7179 29.0789 36.6684 29.0789C32.6188 29.0789 29.3359 25.8527 29.3359 21.8729C29.3359 17.8932 32.6188 14.667 36.6684 14.667C40.7179 14.667 44.0008 17.8932 44.0008 21.8729Z" fill="#FFD600"/>
<path d="M42.5 21.873C42.5 18.7079 39.8891 16.1419 36.6684 16.1419C33.4477 16.1419 30.8367 18.7078 30.8367 21.873C30.8367 25.0382 33.4477 27.604 36.6684 27.604V29.0788L36.4791 29.0764C32.5799 28.9793 29.4371 25.8909 29.3384 22.0588L29.3359 21.873C29.3359 17.8933 32.6189 14.667 36.6684 14.667L36.8575 14.6694C40.8197 14.768 44.0007 17.9554 44.0007 21.873L43.9983 22.0588C43.8979 25.9526 40.6548 29.0788 36.6684 29.0788V27.604C39.8891 27.6039 42.4999 25.0381 42.5 21.873Z" fill="#050F27"/>
</svg>
